HIERARCHY
ROOT Hips
{
	OFFSET	0.0000	0.0000	0.0000
	CHANNELS 6 Xposition Yposition Zposition Xrotation Yrotation Zrotation
	JOINT Spine
	{
		OFFSET	0.0000	9.6567	-5.2257
		CHANNELS 3 Xrotation Yrotation Zrotation
		JOINT Spine1
		{
			OFFSET	0.0000	8.8125	0.4604
			CHANNELS 3 Xrotation Yrotation Zrotation
			JOINT Spine2
			{
				OFFSET	0.0000	10.9044	-2.4272
				CHANNELS 3 Xrotation Yrotation Zrotation
				JOINT Neck
				{
					OFFSET	0.0000	24.5727	-0.5110
					CHANNELS 3 Xrotation Yrotation Zrotation
					JOINT Head
					{
						OFFSET	-0.0001	13.8765	3.7744
						CHANNELS 3 Xrotation Yrotation Zrotation
						End Site
						{
							OFFSET	0.0001	19.3889	0.5788
						}
					}
				}
				JOINT LeftShoulder
				{
					OFFSET	2.4808	23.7139	8.1245
					CHANNELS 3 Xrotation Yrotation Zrotation
					JOINT LeftArm
					{
						OFFSET	14.4933	3.4014	-5.5038
						CHANNELS 3 Xrotation Yrotation Zrotation
						JOINT LeftForeArm
						{
							OFFSET	30.7865	-0.1092	-0.2668
							CHANNELS 3 Xrotation Yrotation Zrotation
							JOINT LeftHand
							{
								OFFSET	25.6825	0.0745	-0.1539
								CHANNELS 3 Xrotation Yrotation Zrotation
								JOINT LeftHandIndex1
								{
									OFFSET	9.9538	0.8705	2.7646
									CHANNELS 3 Xrotation Yrotation Zrotation
									JOINT LeftHandIndex2
									{
										OFFSET	3.7232	-0.9079	0.6560
										CHANNELS 3 Xrotation Yrotation Zrotation
										JOINT LeftHandIndex3
										{
											OFFSET	2.5418	-0.6200	0.4480
											CHANNELS 3 Xrotation Yrotation Zrotation
											End Site
											{
												OFFSET	1.8087	-0.5399	0.2934
											}
										}
									}
								}
								JOINT LeftHandMiddle1
								{
									OFFSET	10.1024	1.0053	0.2407
									CHANNELS 3 Xrotation Yrotation Zrotation
									JOINT LeftHandMiddle2
									{
										OFFSET	4.6036	0.0129	-0.0272
										CHANNELS 3 Xrotation Yrotation Zrotation
										JOINT LeftHandMiddle3
										{
											OFFSET	2.5518	0.0078	-0.0155
											CHANNELS 3 Xrotation Yrotation Zrotation
											End Site
											{
												OFFSET	2.2919	-0.1619	0.0031
											}
										}
									}
								}
								JOINT LeftHandRing1
								{
									OFFSET	9.5741	0.6709	-2.2651
									CHANNELS 3 Xrotation Yrotation Zrotation
									JOINT LeftHandRing2
									{
										OFFSET	4.1772	-0.2115	-0.2615
										CHANNELS 3 Xrotation Yrotation Zrotation
										JOINT LeftHandRing3
										{
											OFFSET	2.3804	-0.1198	-0.1495
											CHANNELS 3 Xrotation Yrotation Zrotation
											End Site
											{
												OFFSET	2.1047	-0.2588	-0.0995
											}
										}
									}
								}
								JOINT LeftHandPinky1
								{
									OFFSET	8.8844	-0.6751	-3.9118
									CHANNELS 3 Xrotation Yrotation Zrotation
									JOINT LeftHandPinky2
									{
										OFFSET	2.5694	-0.5358	-0.7093
										CHANNELS 3 Xrotation Yrotation Zrotation
										JOINT LeftHandPinky3
										{
											OFFSET	1.8842	-0.3924	-0.5205
											CHANNELS 3 Xrotation Yrotation Zrotation
											End Site
											{
												OFFSET	1.6723	-0.4595	-0.3837
											}
										}
									}
								}
								JOINT LeftHandThumb1
								{
									OFFSET	2.0591	-1.5585	1.5610
									CHANNELS 3 Xrotation Yrotation Zrotation
									JOINT LeftHandThumb2
									{
										OFFSET	3.8337	-1.2590	2.8904
										CHANNELS 3 Xrotation Yrotation Zrotation
										JOINT LeftHandThumb3
										{
											OFFSET	2.5244	-0.9033	1.8187
											CHANNELS 3 Xrotation Yrotation Zrotation
											End Site
											{
												OFFSET	1.8564	-0.6390	1.2712
											}
										}
									}
								}
							}
						}
					}
				}
				JOINT RightShoulder
				{
					OFFSET	-2.4808	23.7139	8.1245
					CHANNELS 3 Xrotation Yrotation Zrotation
					JOINT RightArm
					{
						OFFSET	-14.4958	3.4020	-5.5048
						CHANNELS 3 Xrotation Yrotation Zrotation
						JOINT RightForeArm
						{
							OFFSET	-30.7865	-0.1091	-0.2668
							CHANNELS 3 Xrotation Yrotation Zrotation
							JOINT RightHand
							{
								OFFSET	-25.6825	0.0745	-0.1538
								CHANNELS 3 Xrotation Yrotation Zrotation
								JOINT RightHandIndex1
								{
									OFFSET	-9.9539	0.8706	2.7647
									CHANNELS 3 Xrotation Yrotation Zrotation
									JOINT RightHandIndex2
									{
										OFFSET	-3.7232	-0.9079	0.6560
										CHANNELS 3 Xrotation Yrotation Zrotation
										JOINT RightHandIndex3
										{
											OFFSET	-2.5417	-0.6201	0.4480
											CHANNELS 3 Xrotation Yrotation Zrotation
											End Site
											{
												OFFSET	-1.8087	-0.5399	0.2934
											}
										}
									}
								}
								JOINT RightHandMiddle1
								{
									OFFSET	-10.1024	1.0053	0.2407
									CHANNELS 3 Xrotation Yrotation Zrotation
									JOINT RightHandMiddle2
									{
										OFFSET	-4.6036	0.0129	-0.0272
										CHANNELS 3 Xrotation Yrotation Zrotation
										JOINT RightHandMiddle3
										{
											OFFSET	-2.5518	0.0078	-0.0156
											CHANNELS 3 Xrotation Yrotation Zrotation
											End Site
											{
												OFFSET	-2.2919	-0.1619	0.0031
											}
										}
									}
								}
								JOINT RightHandRing1
								{
									OFFSET	-9.5741	0.6709	-2.2651
									CHANNELS 3 Xrotation Yrotation Zrotation
									JOINT RightHandRing2
									{
										OFFSET	-4.1772	-0.2115	-0.2615
										CHANNELS 3 Xrotation Yrotation Zrotation
										JOINT RightHandRing3
										{
											OFFSET	-2.3804	-0.1198	-0.1495
											CHANNELS 3 Xrotation Yrotation Zrotation
											End Site
											{
												OFFSET	-2.1047	-0.2588	-0.0995
											}
										}
									}
								}
								JOINT RightHandPinky1
								{
									OFFSET	-8.8844	-0.6751	-3.9117
									CHANNELS 3 Xrotation Yrotation Zrotation
									JOINT RightHandPinky2
									{
										OFFSET	-2.5694	-0.5358	-0.7093
										CHANNELS 3 Xrotation Yrotation Zrotation
										JOINT RightHandPinky3
										{
											OFFSET	-1.8841	-0.3923	-0.5205
											CHANNELS 3 Xrotation Yrotation Zrotation
											End Site
											{
												OFFSET	-1.6723	-0.4595	-0.3837
											}
										}
									}
								}
								JOINT RightHandThumb1
								{
									OFFSET	-2.0591	-1.5584	1.5609
									CHANNELS 3 Xrotation Yrotation Zrotation
									JOINT RightHandThumb2
									{
										OFFSET	-3.8336	-1.2592	2.8905
										CHANNELS 3 Xrotation Yrotation Zrotation
										JOINT RightHandThumb3
										{
											OFFSET	-2.5244	-0.9032	1.8187
											CHANNELS 3 Xrotation Yrotation Zrotation
											End Site
											{
												OFFSET	-1.8564	-0.6390	1.2712
											}
										}
									}
								}
							}
						}
					}
				}
			}
		}
	}
	JOINT RightUpLeg
	{
		OFFSET	-10.3303	4.3651	-0.8515
		CHANNELS 3 Xrotation Yrotation Zrotation
		JOINT RightLeg
		{
			OFFSET	-0.8266	-44.9320	0.0000
			CHANNELS 3 Xrotation Yrotation Zrotation
			JOINT RightFoot
			{
				OFFSET	0.0000	-44.1205	0.0000
				CHANNELS 3 Xrotation Yrotation Zrotation
				JOINT RightToeBase
				{
					OFFSET	0.0000	-4.8492	10.1404
					CHANNELS 3 Xrotation Yrotation Zrotation
					End Site
					{
						OFFSET	0.0000	0.0000	6.8028
					}
				}
			}
		}
	}
	JOINT LeftUpLeg
	{
		OFFSET	10.3301	4.3654	-0.8515
		CHANNELS 3 Xrotation Yrotation Zrotation
		JOINT LeftLeg
		{
			OFFSET	0.8267	-44.9323	0.0000
			CHANNELS 3 Xrotation Yrotation Zrotation
			JOINT LeftFoot
			{
				OFFSET	0.0000	-44.1205	0.0000
				CHANNELS 3 Xrotation Yrotation Zrotation
				JOINT LeftToeBase
				{
					OFFSET	0.0000	-4.8493	10.1404
					CHANNELS 3 Xrotation Yrotation Zrotation
					End Site
					{
						OFFSET	0.0000	0.0000	6.8028
					}
				}
			}
		}
	}
}
MOTION
Frames:	5
Frame Time: 0.0333333000
	-77.4195	94.3412	-129.6472	8.281973	2.641120	2.248134	-0.000001	0.000000	0.000000	-0.578064	0.103802	0.599405	-1.905543	0.412763	1.964010	-9.439425	-3.947423	10.854480	-1.639094	-0.190827	4.317593	-0.000001	0.000000	-10.238650	29.616660	15.418400	-64.831310	1.378098	-83.889450	1.207848	-0.000002	-0.000003	-0.000009	0.000000	0.000000	0.000000	0.000000	0.000000	0.000000	0.000000	0.000000	0.000000	0.000000	0.000000	0.000000	0.000000	0.000000	0.000000	0.000000	0.000000	0.000000	0.000000	0.000000	0.000000	0.000000	0.000000	0.000000	0.000000	0.000000	0.000000	0.000000	0.000000	0.000000	0.000000	0.000000	0.000000	0.000000	0.000000	0.000000	0.000000	0.000000	0.000000	0.000000	0.000000	0.000000	0.000000	0.000000	0.000000	-0.000001	0.000000	-15.504960	-65.170540	22.840120	-5.037630	0.272109	60.677970	-0.137686	-0.000001	0.000000	0.000001	-0.000003	-0.000001	0.000003	0.000002	0.000001	-0.000002	0.000000	0.000000	0.000000	-0.000003	-0.000001	0.000003	0.000002	0.000001	-0.000002	0.000000	0.000000	0.000000	-0.000003	-0.000001	0.000003	0.000002	0.000001	-0.000002	0.000000	0.000000	0.000000	-0.000003	-0.000001	0.000003	0.000002	0.000001	-0.000002	0.000000	0.000000	0.000000	-0.000003	-0.000001	0.000003	0.000002	0.000001	-0.000002	0.000000	0.000000	0.000000	-14.043780	3.762254	0.421229	11.986520	0.000000	0.000000	0.245566	2.391089	1.137620	0.000000	0.000000	0.000000	-7.197092	-0.925918	7.943480	-0.026349	0.000000	0.000001	2.478575	1.889706	0.855743	0.000000	0.000000	0.000000
	-77.4615	94.2599	-129.5182	8.422461	1.432216	2.255062	0.000000	0.000000	0.000000	-0.620311	0.087191	0.615050	-2.036500	0.395767	1.998169	-9.153387	-3.610056	10.008850	-1.659279	-0.192990	4.349081	0.000000	0.000000	-10.197400	31.664120	17.688430	-66.081600	1.888016	-85.550660	1.710663	0.000000	-0.000001	-0.000002	0.000000	-0.000001	-0.000002	0.000000	-0.000001	-0.000002	0.000000	-0.000001	-0.000002	0.000000	-0.000001	-0.000002	0.000000	-0.000001	-0.000002	0.000000	-0.000001	-0.000002	0.000000	-0.000001	-0.000002	0.000000	-0.000001	-0.000002	0.000000	-0.000001	-0.000002	0.000000	-0.000001	-0.000002	0.000000	-0.000001	-0.000002	0.000000	-0.000001	-0.000002	0.000000	-0.000001	-0.000002	0.000000	-0.000001	-0.000002	0.000000	-0.000001	-0.000002	0.000000	0.000000	-15.390180	-67.497060	19.685030	-7.005568	0.230695	56.221530	-0.102682	0.000002	-0.000004	-0.000001	0.000001	0.000007	0.000002	-0.000001	0.000000	0.000001	0.000002	-0.000004	-0.000001	0.000001	0.000007	0.000002	-0.000001	0.000000	0.000001	0.000002	-0.000004	-0.000001	0.000001	0.000007	0.000002	-0.000001	0.000000	0.000001	0.000002	-0.000004	-0.000001	0.000001	0.000007	0.000002	-0.000001	0.000000	0.000001	0.000002	-0.000004	-0.000001	0.000001	0.000007	0.000002	-0.000001	0.000000	0.000001	0.000002	-0.000004	-0.000001	-14.294360	3.786977	0.638170	12.206610	0.000001	0.000000	0.139239	3.234657	1.543074	0.000000	0.000000	0.000000	-6.809330	-0.902932	8.107841	-0.221609	0.000000	0.000000	2.119855	2.431188	1.110046	0.000000	0.000000	0.000001
	-77.4553	94.1656	-129.3925	8.591517	0.248220	2.255437	0.000000	0.000000	0.000000	-0.663904	0.069053	0.628872	-2.173834	0.368479	2.025528	-8.717486	-3.259194	9.149715	-1.693312	-0.197000	4.409869	0.000000	0.000000	-10.161570	33.603690	19.559020	-67.399730	2.952486	-87.170140	2.766474	-0.000002	0.000004	-0.000007	0.000002	0.000000	0.000009	0.000000	0.000001	0.000002	0.000000	0.000001	0.000002	0.000002	0.000000	0.000009	0.000000	0.000001	0.000002	0.000000	0.000001	0.000002	0.000002	0.000000	0.000009	0.000000	0.000001	0.000002	0.000000	0.000001	0.000002	0.000002	0.000000	0.000009	0.000000	0.000001	0.000002	0.000000	0.000001	0.000002	0.000002	0.000000	0.000009	0.000000	0.000001	0.000002	0.000000	0.000001	0.000002	0.000000	0.000000	-15.277480	-70.555680	16.929640	-8.831532	0.194093	51.239260	-0.074086	0.000002	0.000003	0.000001	0.000001	-0.000001	-0.000002	0.000001	-0.000001	-0.000002	0.000001	-0.000001	-0.000002	0.000001	-0.000001	-0.000002	0.000001	-0.000001	-0.000002	0.000001	-0.000001	-0.000002	0.000001	-0.000001	-0.000002	0.000001	-0.000001	-0.000002	0.000001	-0.000001	-0.000002	0.000001	-0.000001	-0.000002	0.000001	-0.000001	-0.000002	0.000001	-0.000001	-0.000002	0.000001	-0.000001	-0.000002	0.000001	-0.000001	-0.000002	0.000001	-0.000001	-0.000002	-14.552710	3.781811	0.832562	12.423770	0.000000	0.000000	-0.099648	4.078161	1.955697	0.000000	0.000001	0.000000	-6.500786	-0.877958	8.228339	-0.368145	0.000000	0.000002	1.777515	3.169332	1.455667	0.000000	0.000000	-0.000001
	-77.3831	94.0644	-129.2676	8.802456	-0.698871	2.240906	0.000000	0.000000	0.000000	-0.708483	0.049449	0.641180	-2.316323	0.335416	2.046657	-8.067807	-2.832945	8.101680	-1.732148	-0.201767	4.482474	0.000000	0.000000	-10.136050	35.397270	21.144140	-68.668100	6.682944	-88.757770	6.488972	0.000001	0.000004	0.000000	-0.000002	0.000001	-0.000003	-0.000002	0.000001	-0.000003	-0.000002	0.000001	-0.000003	-0.000002	0.000001	-0.000003	-0.000002	0.000001	-0.000003	-0.000002	0.000001	-0.000003	-0.000002	0.000001	-0.000003	-0.000002	0.000001	-0.000003	-0.000002	0.000001	-0.000003	-0.000002	0.000001	-0.000003	-0.000002	0.000001	-0.000003	-0.000002	0.000001	-0.000003	-0.000002	0.000001	-0.000003	-0.000002	0.000001	-0.000003	-0.000002	0.000001	-0.000003	0.000001	0.000000	-15.170590	-72.924340	14.405200	-11.019200	0.159766	45.350520	-0.049789	-0.000001	0.000002	0.000001	0.000000	0.000000	0.000000	0.000000	0.000000	0.000000	0.000000	0.000000	0.000000	0.000000	0.000000	0.000000	0.000000	0.000000	0.000000	0.000000	0.000000	0.000000	0.000000	0.000000	0.000000	0.000000	0.000000	0.000000	0.000000	0.000000	0.000000	0.000000	0.000000	0.000000	0.000000	0.000000	0.000000	0.000000	0.000000	0.000000	0.000000	0.000000	0.000000	0.000000	0.000000	0.000000	0.000000	0.000000	0.000000	-14.775300	3.750059	0.972058	12.560920	0.000000	0.000000	-0.467978	4.685992	2.265522	0.000000	0.000000	0.000000	-6.465384	-0.870102	8.269832	-0.276396	0.000000	-0.000001	1.444517	3.932194	1.818812	0.000000	0.000000	-0.000001
	-77.2605	93.9459	-129.1406	9.010406	-0.808081	2.039649	0.000000	0.000000	0.000000	-0.753659	0.028513	0.652334	-2.461481	0.309986	2.060960	-7.346025	-2.419651	7.062635	-1.760054	-0.204151	4.510822	0.000000	0.000000	-10.086510	36.658020	22.231400	-69.516970	153.758800	-89.676150	153.559400	0.000000	-0.000001	-0.000002	0.000000	-0.000001	-0.000002	0.000000	-0.000001	-0.000002	0.000000	-0.000001	-0.000002	0.000000	-0.000001	-0.000002	0.000000	-0.000001	-0.000002	0.000000	-0.000001	-0.000002	0.000000	-0.000001	-0.000002	0.000000	-0.000001	-0.000002	0.000000	-0.000001	-0.000002	0.000000	-0.000001	-0.000002	0.000000	-0.000001	-0.000002	0.000000	-0.000001	-0.000002	0.000000	-0.000001	-0.000002	0.000000	-0.000001	-0.000002	0.000000	-0.000001	-0.000002	-0.000001	0.000000	-15.073140	-71.626370	11.263320	-14.411580	0.127628	38.348820	-0.029629	0.000003	0.000001	0.000001	0.000000	0.000000	-0.000001	0.000000	0.000000	-0.000001	0.000000	0.000000	-0.000001	0.000000	0.000000	-0.000001	0.000000	0.000000	-0.000001	0.000000	0.000000	-0.000001	0.000000	0.000000	-0.000001	0.000000	0.000000	-0.000001	0.000000	0.000000	-0.000001	0.000000	0.000000	-0.000001	0.000000	0.000000	-0.000001	0.000000	0.000000	-0.000001	0.000000	0.000000	-0.000001	0.000000	0.000000	-0.000001	0.000000	0.000000	-0.000001	-14.837440	3.682058	1.130326	12.531010	-0.000001	0.000000	-0.946616	4.659095	2.275166	0.000001	0.000000	0.000000	-7.020770	-0.930548	8.330860	0.279463	0.000000	0.000000	1.109640	4.293591	2.003696	0.000000	0.000000	-0.000001
